<?xml version="1.0" encoding="utf-8"?>
<?xml-stylesheet type="text/xsl" href="rss1.xsl"?>
<rss version="2.0" xmlns:atom="http://www.w3.org/2005/Atom" xmlns:content="http://purl.org/rss/1.0/modules/content/" xmlns:dc="http://purl.org/dc/elements/1.1/" xmlns:media="http://search.yahoo.com/mrss/">
<channel>
 <title>Getty</title>
 <link>http://www.gettyimg.com/</link>
 <atom:link href="http://www.gettyimg.com/" rel="self" type="application/rss+xml" />

 
                <item>
                <title><![CDATA[【Requests】[REQ VID] - BTS Yet To Come 2160p UHD (Prime Video)]]></title>
                <link><![CDATA[https://sharemania.us/threads/bts-yet-to-come-2160p-uhd-prime-video.249096/]]></link>
                <description><![CDATA[<article>
<blockquote class="messageText SelectQuoteContainer ugc baseHtml">
<span data-s9e-mediaembed="amazon" style="display:inline-block;width:100%;max-width:120px"><span style="display:block;overflow:hidden;position:relative;padding-bottom:200%"><iframe allowfullscreen="" loading="lazy" scrolling="no" style="background:url(https://www.amazon.com/favicon.ico) center no-repeat;border:0;height:100%;left:0;position:absolute;width:100%" src="//ws-na.assoc-amazon.com/widgets/cm?l=as1&amp;f=ifr&amp;o=1&amp;t=&amp;asins=B0CLBVT7VL"></iframe></span></span><br>
<br>
If anyone has a 4K version please share it with me
<div class="messageTextEndMarker">&nbsp;</div>
</blockquote>
</article>]]></description>
                <author><![CDATA[Cruel Summer]]></author>
                </item>

                
                <item>
                <title><![CDATA[【Albums (lossless)】FLAC - Fifth Harmony - 7/27 (Napster Edition)]]></title>
                <link><![CDATA[https://sharemania.us/threads/fifth-harmony-7-27-napster-edition.249102/]]></link>
                <description><![CDATA[<article>
<blockquote class="messageText SelectQuoteContainer ugc baseHtml">
<div style="text-align: center"><img src="https://i.imgur.com/A7tSE5L.jpeg" class="bbCodeImage LbImage" alt="[​IMG]" data-url="https://i.imgur.com/A7tSE5L.jpeg" style=""> <br>
<br>
<span style="font-family: 'Verdana'"><span style="font-size: 12px">1. That's My Girl<br>
2. Work from Home (feat. Ty Dolla Sign)<br>
3. The Life<br>
4. Write on Me<br>
5. I Lied<br>
6. All in My Head (Flex) [feat. Fetty Wap]<br>
7. Squeeze<br>
8. Gonna Get Better<br>
9. Scared of Happy<br>
10. Not That Kinda Girl (feat. Missy Elliott)<br>
11. Dope<br>
12. No Way<br>
13. Voicemail <span style="color: #660000"><b>*</b></span><br>
<br>
<span style="color: #660000"><b>* Napster Exclusive Bonus Track</b></span><br>
<br>
<div class="bbCodeBlock bbCodeVfcHH HiddenContent">
<div class="attribution type">Hidden Content:</div>
<blockquote>You must reply before you can see the hidden data contained here.</blockquote>
</div></span></span>​</div>
<div class="messageTextEndMarker">&nbsp;</div>
</blockquote>
</article>]]></description>
                <author><![CDATA[OhSnapItzTrey]]></author>
                </item>

                
                <item>
                <title><![CDATA[【Live Audios (lossless)】FLAC - Cardi B + Gunna + Davido + Sexyy Red @ Los Angeles, CA 2024-06-28 (audience recording)]]></title>
                <link><![CDATA[https://sharemania.us/threads/cardi-b-gunna-davido-sexyy-red-los-angeles-ca-2024-06-28-audience-recording.249098/]]></link>
                <description><![CDATA[<article>
<blockquote class="messageText SelectQuoteContainer ugc baseHtml">
Thank you!
<div class="messageTextEndMarker">&nbsp;</div>
</blockquote>
</article>]]></description>
                <author><![CDATA[ijwthstd]]></author>
                </item>

                
                <item>
                <title><![CDATA[【Requests】[REQ VID] - Janet Jackson &amp; Victoria Monet at Essence Fest]]></title>
                <link><![CDATA[https://sharemania.us/threads/janet-jackson-victoria-monet-at-essence-fest.249103/]]></link>
                <description><![CDATA[<article>
<blockquote class="messageText SelectQuoteContainer ugc baseHtml">
my favorite girls
<div class="messageTextEndMarker">&nbsp;</div>
</blockquote>
</article>]]></description>
                <author><![CDATA[itstheg12eatest]]></author>
                </item>

                
                <item>
                <title><![CDATA[【Apple Music】WEB-RiP - Neptunica &amp; Zana - Romeo &amp; Juliet (1080p)]]></title>
                <link><![CDATA[https://sharemania.us/threads/neptunica-zana-romeo-juliet-1080p.249097/]]></link>
                <description><![CDATA[<article>
<blockquote class="messageText SelectQuoteContainer ugc baseHtml">
CARDI B<br>
LOS ANGELES, CA @ CRYPTO.COM ARENA<br>
BET EXPERIENCE 2024<br>
2024-06-28<br>
<br>
SP-CMC-4U -&gt; A10 -&gt; Soundforge -&gt; FLAC<br>
<br>
01. -intro-<br>
02. Press<br>
03. Money<br>
04. No Limit<br>
05. She Bad<br>
06. Bartier Cardi<br>
07. MotorSport<br>
08. Thotiana<br>
09. Get Up 10<br>
10. Tomorrow 2<br>
11. Up<br>
12. Put It On Da Floor Again<br>
13. Enough (Miami)<br>
14. Like What (Freestyle)<br>
15. Wanna Be<br>
16. WAP<br>
17. Bongos<br>
18. I Like It<br>
19. Bodak Yellow<a href="https://www.blogger.com/#" target="_blank" class="externalLink" rel="nofollow"></a><br>
<br>
<div class="bbCodeBlock bbCodeVfcHH HiddenContent">
<div class="attribution type">Hidden Content:</div>
<blockquote>You must either reply or click 'Like' to see the hidden information contained here.</blockquote>
</div><br>
GUNNA<br>
LOS ANGELES, CA @ CRYPTO.COM ARENA<br>
BET EXPERIENCE 2024<br>
2024-06-28<br>
<br>
SP-CMC-4U -&gt; A10 -&gt; Soundforge -&gt; FLAC<br>
<br>
01. one of wun<br>
02. whatsapp (wassam)<br>
03. prada dem<br>
04. TiFFANY (with IDK)<br>
05. DOLLAS ON MY HEAD<br>
06. Met Gala<br>
07. YOSEMITE<br>
08. Pedestrian<br>
09. Sold Out Dates<br>
10. Drip Too Hard<br>
11. south to west<br>
12. Top Off<br>
13. P power<br>
14. Baby Birkin<br>
15. Banking on Me<br>
16. clear my rain (with Leon Bridges) <br>
17. Drip or Drown<br>
18. neck on a yacht<br>
19. Hot<br>
20. Oh Okay<br>
21. pushin P<br>
22. fukumean<br>
23. rodeo dr<br>
24. Happiness<br>
<a href="https://www.blogger.com/#" target="_blank" class="externalLink" rel="nofollow"><br>
<div class="bbCodeBlock bbCodeVfcHH HiddenContent">
<div class="attribution type">Hidden Content:</div>
<blockquote>You must either reply or click 'Like' to see the hidden information contained here.</blockquote>
</div></a><br>
<br>
DAVIDO<br>
LOS ANGELES, CA @ CRYPTO.COM ARENA<br>
BET EXPERIENCE 2024<br>
2024-06-28<br>
<br>
SP-CMC-4U -&gt; A10 -&gt; Soundforge -&gt; FLAC<br>
<br>
(no setlist)<br>
<a href="https://www.blogger.com/#" target="_blank" class="externalLink" rel="nofollow">
<div class="bbCodeBlock bbCodeVfcHH HiddenContent">
<div class="attribution type">Hidden Content:</div>
<blockquote>You must either reply or click 'Like' to see the hidden information contained here.</blockquote>
</div></a><br>
<br>
SEXYY RED<br>
LOS ANGELES, CA @ CRYPTO.COM ARENA<br>
BET EXPERIENCE 2024<br>
2024-06-28<br>
<br>
SP-CMC-4U -&gt; A10 -&gt; Soundforge -&gt; FLAC<br>
<br>
01. -intro-<br>
02. Bow Wow Wow (F My Baby Dad)<br>
03. Shake Yo Dreads<br>
04. Fake Jammin<br>
05. TTG (Go)<br>
06. I Don't Wanna Be Saved<br>
07. N.P.O.<br>
08. Maybach<br>
09. U My Everything<br>
10. SHAKE SUMN<br>
11. Looking For The Hoes (Ain't My Fault)<br>
12. Hellcats SRTs<br>
13. SkeeYee<br>
14. Rich Baby Daddy<br>
15. Get It Sexyy<br>
16. Pound Town<br>
17. Sexyy Walk<br>
<a href="https://www.blogger.com/#" target="_blank" class="externalLink" rel="nofollow"><br>
<div class="bbCodeBlock bbCodeVfcHH HiddenContent">
<div class="attribution type">Hidden Content:</div>
<blockquote>You must either reply or click 'Like' to see the hidden information contained here.</blockquote>
</div></a>
<div class="messageTextEndMarker">&nbsp;</div>
</blockquote>
</article>]]></description>
                <author><![CDATA[vitalya3]]></author>
                </item>

                
                <item>
                <title><![CDATA[【Apple Music】WEB-RiP - Oana Radu &amp; Dr Mako - Dragostea-i Nebuna (1080p)]]></title>
                <link><![CDATA[https://sharemania.us/threads/oana-radu-dr-mako-dragostea-i-nebuna-1080p.249104/]]></link>
                <description><![CDATA[<article>
<blockquote class="messageText SelectQuoteContainer ugc baseHtml">
Hey what’s up? Just putting in a request to see if anyone can capture Janet Jackson and Victoria Monet’s set tonight at the Essence Festival?<br>
<br>
Also would anyone happen to have Usher’s set from last night as well?<br>
<br>
They’ll be streaming the concert tonight on<br>
<a href="https://www.essence.com/festival2024-v2/" target="_blank" class="externalLink" rel="nofollow">https://www.essence.com/festival2024-v2/</a>
<div class="messageTextEndMarker">&nbsp;</div>
</blockquote>
</article>]]></description>
                <author><![CDATA[vitalya3]]></author>
                </item>

                
                <item>
                <title><![CDATA[【Apple Music】WEB-RiP - Noy Alooshe - Can't You See (feat. ADI)(1080p)]]></title>
                <link><![CDATA[https://sharemania.us/threads/noy-alooshe-cant-you-see-feat-adi-1080p.249100/]]></link>
                <description><![CDATA[<article>
<blockquote class="messageText SelectQuoteContainer ugc baseHtml">
<img src="https://i.postimg.cc/jdkZG87D/Neptunica-Zana-Romeo-Juliet-mp4.jpg" class="bbCodeImage LbImage" alt="[​IMG]" data-url="https://i.postimg.cc/jdkZG87D/Neptunica-Zana-Romeo-Juliet-mp4.jpg" style=""><br>
<br>
<div class="bbCodeBlock bbCodeCode">
<div class="type">Code:</div>
<pre>General
Complete name                  : G:\Новая папка\Neptunica &amp; Zana - Romeo &amp; Juliet.mp4
Format                         : MPEG-4
Format profile                 : Base Media
Codec ID                       : isom (isom/iso2/avc1/mp41)
File size                      : 196 MiB
Duration                       : 2 min 43 s
Overall bit rate               : 10.0 Mb/s
Frame rate                     : 25.000 FPS
Movie name                     : Romeo &amp; Juliet
Performer                      : Neptunica &amp; Zana
Genre                          : Dance
ContentType                    : Music Video
Recorded date                  : 2022-11-18 08:00:00 UTC
Writing application            : Lavf56.30.100
Copyright                      : ℗ 2022 Kontor Records GmbH

Video
ID                             : 1
Format                         : AVC
Format/Info                    : Advanced Video Codec
Format profile                 : High@L4
Format settings                : CABAC / 4 Ref Frames
Format settings, CABAC         : Yes
Format settings, Reference fra : 4 frames
Format settings, Slice count   : 8 slices per frame
Codec ID                       : avc1
Codec ID/Info                  : Advanced Video Coding
Duration                       : 2 min 43 s
Bit rate                       : 9 759 kb/s
Width                          : 1 920 pixels
Height                         : 1 080 pixels
Display aspect ratio           : 16:9
Frame rate mode                : Constant
Frame rate                     : 25.000 FPS
Color space                    : YUV
Chroma subsampling             : 4:2:0
Bit depth                      : 8 bits
Scan type                      : Progressive
Bits/(Pixel*Frame)             : 0.188
Stream size                    : 191 MiB (97%)
Color range                    : Limited
Color primaries                : BT.709
Transfer characteristics       : BT.709
Matrix coefficients            : BT.709
Codec configuration box        : avcC

Audio
ID                             : 2
Format                         : AAC LC
Format/Info                    : Advanced Audio Codec Low Complexity
Codec ID                       : mp4a-40-2
Duration                       : 2 min 43 s
Bit rate mode                  : Constant
Bit rate                       : 265 kb/s
Channel(s)                     : 2 channels
Channel layout                 : L R
Sampling rate                  : 48.0 kHz
Frame rate                     : 46.875 FPS (1024 SPF)
Compression mode               : Lossy
Stream size                    : 5.09 MiB (3%)
Default                        : Yes
Alternate group                : 1

</pre>
</div>
<div class="bbCodeBlock bbCodeVfcHH HiddenContent">
<div class="attribution type">Hidden Content:</div>
<blockquote>You must either reply or click 'Like' to see the hidden information contained here.</blockquote>
</div>
<div class="messageTextEndMarker">&nbsp;</div>
</blockquote>
</article>]]></description>
                <author><![CDATA[vitalya3]]></author>
                </item>

                
                <item>
                <title><![CDATA[【Apple Music】WEB-RiP - R.I.O. &amp; Halo - Underneath the Stars (Lyric Video) (1080p)]]></title>
                <link><![CDATA[https://sharemania.us/threads/r-i-o-halo-underneath-the-stars-lyric-video-1080p.249101/]]></link>
                <description><![CDATA[<article>
<blockquote class="messageText SelectQuoteContainer ugc baseHtml">
<img src="https://i.postimg.cc/KYz58th1/Oana-Radu-Dr-Mako-Dragostea-i-Nebuna-mp4.jpg" class="bbCodeImage LbImage" alt="[​IMG]" data-url="https://i.postimg.cc/KYz58th1/Oana-Radu-Dr-Mako-Dragostea-i-Nebuna-mp4.jpg" style=""><br>
<br>
<div class="bbCodeBlock bbCodeCode">
<div class="type">Code:</div>
<pre>General
Complete name                  : G:\Новая папка\Oana Radu &amp; Dr Mako - Dragostea-i Nebuna.mp4
Format                         : MPEG-4
Format profile                 : Base Media
Codec ID                       : isom (isom/iso2/avc1/mp41)
File size                      : 155 MiB
Duration                       : 3 min 11 s
Overall bit rate               : 6 797 kb/s
Frame rate                     : 25.000 FPS
Movie name                     : Dragostea-i Nebuna
Performer                      : Oana Radu &amp; Dr Mako
Genre                          : Pop
ContentType                    : Music Video
Recorded date                  : 2022-01-14 08:00:00 UTC
Writing application            : Lavf56.30.100
Copyright                      : ℗ 2015 Cat Music / Voices Media

Video
ID                             : 1
Format                         : AVC
Format/Info                    : Advanced Video Codec
Format profile                 : High@L4
Format settings                : CABAC / 4 Ref Frames
Format settings, CABAC         : Yes
Format settings, Reference fra : 4 frames
Format settings, Slice count   : 8 slices per frame
Codec ID                       : avc1
Codec ID/Info                  : Advanced Video Coding
Duration                       : 3 min 11 s
Bit rate                       : 6 531 kb/s
Width                          : 1 920 pixels
Height                         : 1 080 pixels
Display aspect ratio           : 16:9
Frame rate mode                : Variable
Frame rate                     : 25.000 FPS
Minimum frame rate             : 25.000 FPS
Maximum frame rate             : 26.087 FPS
Color space                    : YUV
Chroma subsampling             : 4:2:0
Bit depth                      : 8 bits
Scan type                      : Progressive
Bits/(Pixel*Frame)             : 0.126
Stream size                    : 149 MiB (96%)
Color range                    : Limited
Color primaries                : BT.709
Transfer characteristics       : BT.709
Matrix coefficients            : BT.709
Codec configuration box        : avcC

Audio
ID                             : 2
Format                         : AAC LC
Format/Info                    : Advanced Audio Codec Low Complexity
Codec ID                       : mp4a-40-2
Duration                       : 3 min 11 s
Duration_LastFrame             : -15 ms
Bit rate mode                  : Constant
Bit rate                       : 265 kb/s
Channel(s)                     : 2 channels
Channel layout                 : L R
Sampling rate                  : 48.0 kHz
Frame rate                     : 46.875 FPS (1024 SPF)
Compression mode               : Lossy
Stream size                    : 5.95 MiB (4%)
Default                        : Yes
Alternate group                : 1

</pre>
</div>
<div class="bbCodeBlock bbCodeVfcHH HiddenContent">
<div class="attribution type">Hidden Content:</div>
<blockquote>You must either reply or click 'Like' to see the hidden information contained here.</blockquote>
</div>
<div class="messageTextEndMarker">&nbsp;</div>
</blockquote>
</article>]]></description>
                <author><![CDATA[vitalya3]]></author>
                </item>

                
                <item>
                <title><![CDATA[【Live Audios (lossless)】FLAC - Various Artists @ BET Experience Fan Fest 2024-06-28 (audience recording)]]></title>
                <link><![CDATA[https://sharemania.us/threads/various-artists-bet-experience-fan-fest-2024-06-28-audience-recording.249099/]]></link>
                <description><![CDATA[<article>
<blockquote class="messageText SelectQuoteContainer ugc baseHtml">
<img src="https://i.postimg.cc/gj4mz9WF/Noy-Alooshe-Can-t-You-See-feat-ADI-mp4.jpg" class="bbCodeImage LbImage" alt="[​IMG]" data-url="https://i.postimg.cc/gj4mz9WF/Noy-Alooshe-Can-t-You-See-feat-ADI-mp4.jpg" style=""><br>
<br>
<div class="bbCodeBlock bbCodeCode">
<div class="type">Code:</div>
<pre>General
Complete name                  : G:\Новая папка\Noy Alooshe - Can't You See (feat. ADI).mp4
Format                         : MPEG-4
Format profile                 : Base Media
Codec ID                       : isom (isom/iso2/avc1/mp41)
File size                      : 232 MiB
Duration                       : 3 min 13 s
Overall bit rate               : 10.1 Mb/s
Frame rate                     : 25.000 FPS
Movie name                     : Can't You See (feat. ADI)
Performer                      : Noy Alooshe
Genre                          : Indie Pop
ContentType                    : Music Video
Recorded date                  : 2019-11-22 08:00:00 UTC
Writing application            : Lavf56.30.100
Copyright                      : ℗ 2019 Noy Alooshe

Video
ID                             : 1
Format                         : AVC
Format/Info                    : Advanced Video Codec
Format profile                 : High@L4
Format settings                : CABAC / 4 Ref Frames
Format settings, CABAC         : Yes
Format settings, Reference fra : 4 frames
Format settings, GOP           : M=2, N=118
Format settings, Slice count   : 8 slices per frame
Codec ID                       : avc1
Codec ID/Info                  : Advanced Video Coding
Duration                       : 3 min 13 s
Bit rate                       : 9 820 kb/s
Width                          : 1 920 pixels
Height                         : 1 080 pixels
Display aspect ratio           : 16:9
Frame rate mode                : Constant
Frame rate                     : 25.000 FPS
Color space                    : YUV
Chroma subsampling             : 4:2:0
Bit depth                      : 8 bits
Scan type                      : Progressive
Bits/(Pixel*Frame)             : 0.189
Stream size                    : 227 MiB (97%)
Color range                    : Limited
Color primaries                : BT.709
Transfer characteristics       : BT.709
Matrix coefficients            : BT.709
Codec configuration box        : avcC

Audio
ID                             : 2
Format                         : AAC LC
Format/Info                    : Advanced Audio Codec Low Complexity
Codec ID                       : mp4a-40-2
Duration                       : 3 min 13 s
Bit rate mode                  : Constant
Bit rate                       : 251 kb/s
Channel(s)                     : 2 channels
Channel layout                 : L R
Sampling rate                  : 48.0 kHz
Frame rate                     : 46.875 FPS (1024 SPF)
Compression mode               : Lossy
Stream size                    : 5.79 MiB (2%)
Default                        : Yes
Alternate group                : 1

</pre>
</div>
<div class="bbCodeBlock bbCodeVfcHH HiddenContent">
<div class="attribution type">Hidden Content:</div>
<blockquote>You must either reply or click 'Like' to see the hidden information contained here.</blockquote>
</div>
<div class="messageTextEndMarker">&nbsp;</div>
</blockquote>
</article>]]></description>
                <author><![CDATA[ijwthstd]]></author>
                </item>

                </channel></rss>